<svg width="24" height="25" viewBox="0 0 24 25" fill="none" xmlns="http://www.w3.org/2000/svg" outline="white">
<path fillRule="evenodd" fillRule="evenodd" d="M13.7836 1.92736C12.699 1.28113 11.301 1.28113 10.2164 1.92736L1.48913 7.12736C0.560353 7.68075 0 8.62726 0 9.64269V20.5573C0 22.2142 1.46525 23.5573 3.27273 23.5573H20.7273C22.5348 23.5573 24 22.2142 24 20.5573V9.64269C24 8.62726 23.4396 7.68075 22.5109 7.12736L13.7836 1.92736ZM11.4055 3.60424C11.767 3.38884 12.233 3.38884 12.5945 3.60424L21.3218 8.80424C21.6314 8.98871 21.8182 9.30421 21.8182 9.64269V20.5573C21.8182 21.1096 21.3298 21.5573 20.7273 21.5573H16.3635L16.3636 14.0189C16.3636 11.9312 14.1983 10.5573 12.0001 10.5573C9.80189 10.5573 7.63655 11.9312 7.63654 14.0189L7.63636 21.5573L8.92562 21.5573H3.27273C2.67024 21.5573 2.18182 21.1096 2.18182 20.5573V9.64269C2.18182 9.30421 2.3686 8.98871 2.67819 8.80424L11.4055 3.60424ZM9.81818 21.5573H15.4709L14.1816 21.5573L14.1818 14.0189C14.1818 13.3876 13.4167 12.5573 12.0001 12.5573C10.5834 12.5573 9.81835 13.3876 9.81835 14.0189L9.81818 21.5573Z" fill="#101B2D"/>
</svg>
