<svg width="48" height="48" viewBox="0 0 48 48" fill="none" xmlns="http://www.w3.org/2000/svg">
<path fill-rule="evenodd" clip-rule="evenodd" d="M22 3.95605V7.95605C22 9.06005 22.896 9.95605 24 9.95605C25.104 9.95605 26 9.06005 26 7.95605V3.95605C26 2.85205 25.104 1.95605 24 1.95605C22.896 1.95605 22 2.85205 22 3.95605Z" fill="black"/>
<path fill-rule="evenodd" clip-rule="evenodd" d="M5.67973 15.6881L9.14373 17.6881C10.0997 18.2401 11.3237 17.9121 11.8757 16.9561C12.4277 16.0001 12.0997 14.7761 11.1437 14.2241L7.67973 12.2241C6.72373 11.6721 5.49973 12.0001 4.94773 12.9561C4.39573 13.9121 4.72373 15.1361 5.67973 15.6881Z" fill="black"/>
<path fill-rule="evenodd" clip-rule="evenodd" d="M7.67973 35.6881L11.1437 33.6881C12.0997 33.1361 12.4277 31.9121 11.8757 30.9561C11.3237 30.0001 10.0997 29.6721 9.14373 30.2241L5.67973 32.2241C4.72373 32.7761 4.39573 34.0001 4.94773 34.9561C5.49973 35.9121 6.72373 36.2401 7.67973 35.6881Z" fill="black"/>
<path fill-rule="evenodd" clip-rule="evenodd" d="M4 25.9561H8C9.104 25.9561 10 25.0601 10 23.9561C10 22.8521 9.104 21.9561 8 21.9561H4C2.896 21.9561 2 22.8521 2 23.9561C2 25.0601 2.896 25.9561 4 25.9561Z" fill="black"/>
<path fill-rule="evenodd" clip-rule="evenodd" d="M15.732 42.2761L17.732 38.8121C18.284 37.8561 17.956 36.6321 17 36.0801C16.044 35.5281 14.82 35.8561 14.268 36.8121L12.268 40.2761C11.716 41.2321 12.044 42.4581 13 43.0081C13.956 43.5601 15.18 43.2321 15.732 42.2761Z" fill="black"/>
<path fill-rule="evenodd" clip-rule="evenodd" d="M35.732 40.2761L33.732 36.8121C33.18 35.8561 31.956 35.5281 31 36.0801C30.044 36.6321 29.716 37.8561 30.268 38.8121L32.268 42.2761C32.82 43.2321 34.044 43.5601 35 43.0081C35.956 42.4581 36.284 41.2321 35.732 40.2761Z" fill="black"/>
<path fill-rule="evenodd" clip-rule="evenodd" d="M22 39.9561V43.9561C22 45.0601 22.896 45.9561 24 45.9561C25.104 45.9561 26 45.0601 26 43.9561V39.9561C26 38.8521 25.104 37.9561 24 37.9561C22.896 37.9561 22 38.8521 22 39.9561Z" fill="black"/>
<path fill-rule="evenodd" clip-rule="evenodd" d="M36.8555 33.6881L40.3195 35.6881C41.2755 36.2401 42.4995 35.9121 43.0515 34.9561C43.6035 34.0001 43.2755 32.7761 42.3195 32.2241L38.8555 30.2241C37.8995 29.6721 36.6755 30.0001 36.1235 30.9561C35.5715 31.9121 35.8995 33.1361 36.8555 33.6881Z" fill="black"/>
<path fill-rule="evenodd" clip-rule="evenodd" d="M38.8555 17.6881L42.3195 15.6881C43.2755 15.1361 43.6035 13.9121 43.0515 12.9561C42.4995 12.0001 41.2755 11.6721 40.3195 12.2241L36.8555 14.2241C35.8995 14.7761 35.5715 16.0001 36.1235 16.9561C36.6755 17.9121 37.8995 18.2401 38.8555 17.6881Z" fill="black"/>
<path fill-rule="evenodd" clip-rule="evenodd" d="M40 25.9561H44C45.104 25.9561 46 25.0601 46 23.9561C46 22.8521 45.104 21.9561 44 21.9561H40C38.896 21.9561 38 22.8521 38 23.9561C38 25.0601 38.896 25.9561 40 25.9561Z" fill="black"/>
<path fill-rule="evenodd" clip-rule="evenodd" d="M33.732 11.1003L35.732 7.63627C36.284 6.68027 35.956 5.45627 35 4.90427C34.044 4.35227 32.82 4.68027 32.268 5.63627L30.268 9.10027C29.716 10.0563 30.044 11.2803 31 11.8323C31.956 12.3843 33.18 12.0563 33.732 11.1003Z" fill="black"/>
<path fill-rule="evenodd" clip-rule="evenodd" d="M17.732 9.10027L15.732 5.63627C15.18 4.68027 13.956 4.35227 13 4.90427C12.044 5.45627 11.716 6.68027 12.268 7.63627L14.268 11.1003C14.82 12.0563 16.044 12.3843 17 11.8323C17.956 11.2803 18.284 10.0563 17.732 9.10027Z" fill="black"/>
</svg>
