<svg width="24" height="24" viewBox="0 0 24 24" fill="none" xmlns="http://www.w3.org/2000/svg">
<path d="M12 11.25C14.2092 11.25 16 9.45914 16 7.25C16 5.04086 14.2092 3.25 12 3.25C9.79086 3.25 8 5.04086 8 7.25C8 9.45914 9.79086 11.25 12 11.25Z" stroke="#101B2D" stroke-width="2" stroke-linecap="round" stroke-linejoin="round"/>
<g opacity="0.6">
<path d="M20 20.75C20 19.3544 20 18.6567 19.8278 18.0889C19.44 16.8105 18.4395 15.81 17.1611 15.4222C16.5933 15.25 15.8956 15.25 14.5 15.25H9.5C8.10444 15.25 7.40665 15.25 6.83886 15.4222C5.56045 15.81 4.56004 16.8105 4.17224 18.0889C4 18.6567 4 19.3544 4 20.75" fill="white" fill-opacity="0.4"/>
<path d="M20 20.75C20 19.3544 20 18.6567 19.8278 18.0889C19.44 16.8105 18.4395 15.81 17.1611 15.4222C16.5933 15.25 15.8956 15.25 14.5 15.25H9.5C8.10444 15.25 7.40665 15.25 6.83886 15.4222C5.56045 15.81 4.56004 16.8105 4.17224 18.0889C4 18.6567 4 19.3544 4 20.75" stroke="#101B2D" stroke-width="2" stroke-linecap="round" stroke-linejoin="round"/>
</g>
</svg>
