<?xml version="1.0" standalone="no"?>
<!DOCTYPE svg PUBLIC "-//W3C//DTD SVG 20010904//EN"
 "http://www.w3.org/TR/2001/REC-SVG-20010904/DTD/svg10.dtd">
<svg version="1.0" xmlns="http://www.w3.org/2000/svg"
 width="512.000000pt" height="512.000000pt" viewBox="0 0 512.000000 512.000000"
 preserveAspectRatio="xMidYMid meet">

<g transform="translate(0.000000,512.000000) scale(0.100000,-0.100000)"
fill="#000000" stroke="none">
<path d="M1817 4594 c-228 -41 -437 -198 -541 -406 -50 -101 -77 -193 -80
-271 -1 -42 3 -52 27 -73 15 -13 41 -24 56 -24 51 0 70 27 91 125 55 252 236
435 476 481 43 8 106 13 140 12 44 -1 69 3 87 15 54 35 39 124 -24 146 -42 15
-135 13 -232 -5z"/>
<path d="M3250 4595 c-60 -19 -109 -62 -145 -126 l-30 -54 -3 -332 c-3 -317
-4 -333 -22 -333 -10 0 -28 -12 -39 -26 -19 -24 -21 -40 -21 -170 l0 -144
-544 0 -544 0 -53 -28 c-60 -31 -113 -93 -129 -150 -5 -20 -10 -83 -10 -139
l0 -103 -95 0 c-102 0 -151 -13 -193 -53 -51 -47 -52 -55 -52 -377 0 -329 1
-334 60 -383 41 -35 89 -47 192 -47 l86 0 4 -342 c4 -333 5 -346 31 -441 53
-199 158 -378 305 -519 141 -136 285 -220 464 -272 658 -190 1331 263 1407
947 7 60 11 392 11 885 0 906 4 861 -84 948 -50 50 -99 74 -153 74 -23 0 -23
1 -23 144 0 130 -2 146 -21 170 -11 14 -29 26 -39 26 -18 0 -19 16 -22 333
l-3 332 -30 54 c-36 66 -85 107 -149 126 -60 18 -97 18 -156 0z m185 -1549
c55 -25 108 -79 134 -135 24 -53 24 -479 -1 -532 -25 -57 -83 -114 -138 -138
-49 -21 -56 -21 -622 -19 -544 3 -575 4 -612 22 -50 25 -97 72 -122 122 -17
35 -19 62 -19 279 0 270 3 284 78 356 70 68 58 67 687 68 l565 1 50 -24z
m-500 -1011 c221 -46 402 -217 460 -435 19 -69 19 -229 1 -297 -55 -206 -213
-367 -421 -429 -95 -28 -240 -24 -340 10 -205 69 -357 237 -400 441 -88 420
283 797 700 710z"/>
<path d="M2749 1697 c-222 -63 -253 -365 -48 -470 107 -55 224 -34 304 55 50
55 65 97 65 178 -1 160 -164 281 -321 237z"/>
<path d="M1938 4280 c-213 -38 -369 -181 -423 -386 -21 -82 -19 -102 14 -135
60 -60 123 -30 147 70 27 117 90 203 181 250 46 23 146 43 178 35 32 -8 80 20
95 56 14 35 0 84 -30 100 -26 14 -110 19 -162 10z"/>
<path d="M1952 3934 c-61 -30 -105 -80 -127 -143 -22 -64 -19 -89 14 -122 54
-54 123 -31 142 46 14 55 27 66 91 76 58 9 84 29 93 69 7 32 -15 84 -40 94
-40 15 -122 6 -173 -20z"/>
</g>
</svg>
