<svg width="24" height="24" viewBox="0 0 24 24" fill="none" xmlns="http://www.w3.org/2000/svg">
<path fill-rule="evenodd" clip-rule="evenodd" d="M16.8443 18.13C15.2772 19.4124 13.2739 20.1818 11.0909 20.1818C6.07015 20.1818 2 16.1117 2 11.0909C2 6.07014 6.07015 2 11.0909 2C16.1117 2 20.1819 6.07014 20.1819 11.0909C20.1819 13.2739 19.4124 15.2772 18.13 16.8443L21.7337 20.4481C22.0888 20.8031 22.0888 21.3787 21.7337 21.7337C21.3787 22.0888 20.8031 22.0888 20.4481 21.7337L16.8443 18.13ZM18.3637 11.0909C18.3637 15.1075 15.1076 18.3636 11.0909 18.3636C7.0743 18.3636 3.81819 15.1075 3.81819 11.0909C3.81819 7.07429 7.0743 3.81818 11.0909 3.81818C15.1076 3.81818 18.3637 7.07429 18.3637 11.0909Z" fill="white"/>
</svg>
