<svg width="24" height="24" viewBox="0 0 24 24" fill="none" xmlns="http://www.w3.org/2000/svg">
<path fill-rule="evenodd" clip-rule="evenodd" d="M3.66671 2.83334C3.20647 2.83334 2.83337 3.20643 2.83337 3.66667C2.83337 4.12691 3.20647 4.5 3.66671 4.5H5.64056L6.55597 6.42217L7.67613 12.8382C6.36867 12.9193 5.33337 14.0054 5.33337 15.3333C5.33337 16.2185 5.79345 16.9963 6.48754 17.4405C6.28326 17.8028 6.16671 18.2211 6.16671 18.6667C6.16671 20.0474 7.286 21.1667 8.66671 21.1667C10.0474 21.1667 11.1667 20.0474 11.1667 18.6667C11.1667 18.3745 11.1166 18.094 11.0245 17.8333H15.4756C15.3835 18.094 15.3334 18.3745 15.3334 18.6667C15.3334 20.0474 16.4527 21.1667 17.8334 21.1667C19.2141 21.1667 20.3334 20.0474 20.3334 18.6667C20.3334 17.286 19.2141 16.1667 17.8334 16.1667H7.83337C7.37314 16.1667 7.00004 15.7936 7.00004 15.3333C7.00004 14.8731 7.37314 14.5 7.83337 14.5H8.65495C8.69159 14.5005 8.72867 14.4985 8.766 14.4941L17.9838 13.3879C19.0567 13.2592 19.9254 12.4557 20.1373 11.396L21.1505 6.3301C21.1995 6.08529 21.1361 5.83142 20.9778 5.63835C20.8195 5.44527 20.583 5.33334 20.3334 5.33334H7.88344L6.91908 3.30836C6.78088 3.01818 6.48812 2.83334 6.16671 2.83334H3.66671ZM17.8334 17.8333C17.3731 17.8333 17 18.2064 17 18.6667C17 19.1269 17.3731 19.5 17.8334 19.5C18.2936 19.5 18.6667 19.1269 18.6667 18.6667C18.6667 18.2064 18.2936 17.8333 17.8334 17.8333ZM7.83337 18.6667C7.83337 18.2064 8.20647 17.8333 8.66671 17.8333C9.12695 17.8333 9.50004 18.2064 9.50004 18.6667C9.50004 19.1269 9.12695 19.5 8.66671 19.5C8.20647 19.5 7.83337 19.1269 7.83337 18.6667ZM9.35176 12.7452L8.34873 7H19.3169L18.503 11.0692C18.4324 11.4224 18.1428 11.6902 17.7852 11.7331L9.35176 12.7452Z" fill="#333336"/>
</svg>
