<svg width="165" height="20" viewBox="0 0 165 20" fill="none" xmlns="http://www.w3.org/2000/svg">
<path d="M0.67086 15V0.4H5.27086C7.44419 0.4 9.03753 0.759999 10.0509 1.48C11.0775 2.2 11.5909 3.32667 11.5909 4.86C11.5909 6.36667 11.1109 7.50667 10.1509 8.28C9.19086 9.04 7.75086 9.42 5.83086 9.42H2.07086V7.16H5.41086C6.58419 7.16 7.43086 6.98667 7.95086 6.64C8.47086 6.29333 8.73086 5.74 8.73086 4.98C8.73086 4.22 8.47086 3.66667 7.95086 3.32C7.43086 2.97333 6.58419 2.8 5.41086 2.8H3.47086V15H0.67086ZM9.09086 15L2.95086 8.36H6.21086L12.4709 15H9.09086ZM18.6001 15.2C16.7334 15.2 15.2934 14.7333 14.2801 13.8C13.2801 12.8667 12.7801 11.5333 12.7801 9.8C12.7801 8.12 13.2401 6.8 14.1601 5.84C15.0801 4.88 16.3467 4.4 17.9601 4.4C19.5201 4.4 20.7201 4.85333 21.5601 5.76C22.4134 6.66667 22.8401 7.95333 22.8401 9.62C22.8401 9.80667 22.8334 10.02 22.8201 10.26C22.8201 10.5 22.8134 10.68 22.8001 10.8H14.3201V8.9H20.6601L20.2801 9.48C20.2801 8.44 20.0867 7.66667 19.7001 7.16C19.3267 6.65333 18.7467 6.4 17.9601 6.4C17.1334 6.4 16.5134 6.66667 16.1001 7.2C15.6867 7.72 15.4801 8.5 15.4801 9.54V10.34C15.4801 11.2733 15.7267 11.96 16.2201 12.4C16.7134 12.84 17.4667 13.06 18.4801 13.06C19.0534 13.06 19.6601 13.0067 20.3001 12.9C20.9401 12.7933 21.5067 12.6467 22.0001 12.46L22.3201 14.56C21.8267 14.76 21.2467 14.9133 20.5801 15.02C19.9267 15.14 19.2667 15.2 18.6001 15.2ZM29.372 15.2C28.1186 15.2 27.212 14.9467 26.652 14.44C26.1053 13.9333 25.832 13.1 25.832 11.94V6.74H23.572V4.6H25.832V1.2H28.592V4.6H31.972V6.74H28.592V11.26C28.592 11.8867 28.692 12.3267 28.892 12.58C29.092 12.82 29.452 12.94 29.972 12.94C30.252 12.94 30.5453 12.9133 30.852 12.86C31.172 12.8067 31.4653 12.7333 31.732 12.64L31.952 14.82C31.4986 14.9533 31.0653 15.0467 30.652 15.1C30.2386 15.1667 29.812 15.2 29.372 15.2ZM39.2055 15.2C37.3389 15.2 35.8989 14.7333 34.8855 13.8C33.8855 12.8667 33.3855 11.5333 33.3855 9.8C33.3855 8.12 33.8455 6.8 34.7655 5.84C35.6855 4.88 36.9522 4.4 38.5655 4.4C40.1255 4.4 41.3255 4.85333 42.1655 5.76C43.0189 6.66667 43.4455 7.95333 43.4455 9.62C43.4455 9.80667 43.4389 10.02 43.4255 10.26C43.4255 10.5 43.4189 10.68 43.4055 10.8H34.9255V8.9H41.2655L40.8855 9.48C40.8855 8.44 40.6922 7.66667 40.3055 7.16C39.9322 6.65333 39.3522 6.4 38.5655 6.4C37.7389 6.4 37.1189 6.66667 36.7055 7.2C36.2922 7.72 36.0855 8.5 36.0855 9.54V10.34C36.0855 11.2733 36.3322 11.96 36.8255 12.4C37.3189 12.84 38.0722 13.06 39.0855 13.06C39.6589 13.06 40.2655 13.0067 40.9055 12.9C41.5455 12.7933 42.1122 12.6467 42.6055 12.46L42.9255 14.56C42.4322 14.76 41.8522 14.9133 41.1855 15.02C40.5322 15.14 39.8722 15.2 39.2055 15.2ZM56.5688 2.94V0.4H59.3688V2.94H56.5688ZM56.5688 15V4.74H59.3688V15H56.5688ZM65.9282 15.2C65.4615 15.2 64.9615 15.1667 64.4282 15.1C63.9082 15.0467 63.4082 14.9667 62.9282 14.86C62.4482 14.74 62.0282 14.6067 61.6682 14.46L62.0082 12.36C62.6482 12.5867 63.2615 12.76 63.8482 12.88C64.4482 13 65.0415 13.06 65.6282 13.06C66.2949 13.06 66.7815 12.9733 67.0882 12.8C67.3949 12.6267 67.5482 12.36 67.5482 12C67.5482 11.7867 67.4949 11.6133 67.3882 11.48C67.2815 11.3467 67.0882 11.2267 66.8082 11.12C66.5415 11 66.1615 10.8867 65.6682 10.78C64.8149 10.5667 64.0815 10.32 63.4682 10.04C62.8682 9.74667 62.4082 9.38667 62.0882 8.96C61.7682 8.53333 61.6082 8.01333 61.6082 7.4C61.6082 6.41333 61.9815 5.66667 62.7282 5.16C63.4749 4.65333 64.5615 4.4 65.9882 4.4C66.6415 4.4 67.3149 4.45333 68.0082 4.56C68.7149 4.66667 69.3749 4.82 69.9882 5.02L69.6482 7.12C69.0615 6.92 68.4949 6.77333 67.9482 6.68C67.4015 6.58667 66.8682 6.54 66.3482 6.54C65.6815 6.54 65.1882 6.62 64.8682 6.78C64.5482 6.92667 64.3882 7.16 64.3882 7.48C64.3882 7.66667 64.4415 7.82667 64.5482 7.96C64.6549 8.09333 64.8415 8.21333 65.1082 8.32C65.3749 8.42667 65.7482 8.53333 66.2282 8.64C66.8549 8.78667 67.4215 8.96 67.9282 9.16C68.4349 9.36 68.8682 9.6 69.2282 9.88C69.5882 10.1467 69.8615 10.46 70.0482 10.82C70.2482 11.18 70.3482 11.5933 70.3482 12.06C70.3482 12.7 70.1682 13.26 69.8082 13.74C69.4482 14.2067 68.9349 14.5667 68.2682 14.82C67.6149 15.0733 66.8349 15.2 65.9282 15.2ZM78.0537 15V0.4H81.5737L85.2937 8.96H85.3337L89.0537 0.4H92.5737V15H89.7737V4.8H89.7337L86.6137 11.9H84.0137L80.8937 4.8H80.8537V15H78.0537ZM100.151 15.2C98.4447 15.2 97.1247 14.7333 96.1913 13.8C95.2713 12.8667 94.8113 11.5333 94.8113 9.8C94.8113 8.06667 95.2713 6.73333 96.1913 5.8C97.1247 4.86667 98.4447 4.4 100.151 4.4C101.858 4.4 103.171 4.86667 104.091 5.8C105.011 6.73333 105.471 8.06667 105.471 9.8C105.471 11.5333 105.011 12.8667 104.091 13.8C103.171 14.7333 101.858 15.2 100.151 15.2ZM100.151 13.06C101.005 13.06 101.645 12.7867 102.071 12.24C102.511 11.6933 102.731 10.88 102.731 9.8C102.731 8.72 102.511 7.90667 102.071 7.36C101.645 6.81333 101.005 6.54 100.151 6.54C99.3113 6.54 98.6647 6.81333 98.2113 7.36C97.7713 7.90667 97.5513 8.72 97.5513 9.8C97.5513 10.88 97.7713 11.6933 98.2113 12.24C98.6647 12.7867 99.3113 13.06 100.151 13.06ZM107.542 15V4.6H110.162L110.182 5.82H110.222C110.649 5.34 111.142 4.98667 111.702 4.76C112.275 4.52 112.935 4.4 113.682 4.4C114.935 4.4 115.855 4.74 116.442 5.42C117.042 6.08667 117.342 7.14667 117.342 8.6V15H114.602V9.14C114.602 8.27333 114.455 7.64667 114.162 7.26C113.869 6.86 113.402 6.66 112.762 6.66C112.282 6.66 111.855 6.76 111.482 6.96C111.109 7.14667 110.815 7.40667 110.602 7.74C110.402 8.06 110.302 8.44 110.302 8.88V15H107.542ZM124.007 19.4C123.167 19.4 122.367 19.32 121.607 19.16C120.847 19 120.213 18.7733 119.707 18.48L120.047 16.4C120.54 16.6667 121.113 16.88 121.767 17.04C122.433 17.2 123.087 17.28 123.727 17.28C124.847 17.28 125.64 17.0067 126.107 16.46C126.587 15.9267 126.827 15.04 126.827 13.8V13.26H126.787C126.373 13.7133 125.893 14.0533 125.347 14.28C124.8 14.4933 124.193 14.6 123.527 14.6C122.14 14.6 121.067 14.1533 120.307 13.26C119.547 12.3667 119.167 11.1133 119.167 9.5C119.167 7.88667 119.547 6.63333 120.307 5.74C121.067 4.84667 122.14 4.4 123.527 4.4C124.193 4.4 124.813 4.51333 125.387 4.74C125.973 4.96667 126.473 5.3 126.887 5.74H126.927L126.947 4.6H129.567V13.8C129.567 15.6933 129.107 17.1 128.187 18.02C127.28 18.94 125.887 19.4 124.007 19.4ZM124.327 12.4C124.82 12.4 125.247 12.3133 125.607 12.14C125.98 11.9667 126.273 11.7333 126.487 11.44C126.713 11.1333 126.827 10.7867 126.827 10.4V8.6C126.827 8.21333 126.713 7.87333 126.487 7.58C126.273 7.27333 125.98 7.03333 125.607 6.86C125.247 6.68667 124.82 6.6 124.327 6.6C123.553 6.6 122.947 6.85333 122.507 7.36C122.08 7.86667 121.867 8.58 121.867 9.5C121.867 10.4333 122.08 11.1533 122.507 11.66C122.947 12.1533 123.553 12.4 124.327 12.4ZM137.007 15.2C135.3 15.2 133.98 14.7333 133.047 13.8C132.127 12.8667 131.667 11.5333 131.667 9.8C131.667 8.06667 132.127 6.73333 133.047 5.8C133.98 4.86667 135.3 4.4 137.007 4.4C138.713 4.4 140.027 4.86667 140.947 5.8C141.867 6.73333 142.327 8.06667 142.327 9.8C142.327 11.5333 141.867 12.8667 140.947 13.8C140.027 14.7333 138.713 15.2 137.007 15.2ZM137.007 13.06C137.86 13.06 138.5 12.7867 138.927 12.24C139.367 11.6933 139.587 10.88 139.587 9.8C139.587 8.72 139.367 7.90667 138.927 7.36C138.5 6.81333 137.86 6.54 137.007 6.54C136.167 6.54 135.52 6.81333 135.067 7.36C134.627 7.90667 134.407 8.72 134.407 9.8C134.407 10.88 134.627 11.6933 135.067 12.24C135.52 12.7867 136.167 13.06 137.007 13.06ZM150.319 2.94V0.4H153.119V2.94H150.319ZM150.319 15V4.74H153.119V15H150.319ZM158.538 15.2C157.512 15.2 156.698 14.9133 156.098 14.34C155.512 13.7667 155.218 13 155.218 12.04C155.218 10.84 155.685 9.91333 156.618 9.26C157.565 8.60667 158.905 8.28 160.638 8.28H162.018C162.018 7.81333 161.958 7.45333 161.838 7.2C161.732 6.94667 161.538 6.77333 161.258 6.68C160.992 6.57333 160.605 6.52 160.098 6.52C159.432 6.52 158.738 6.59333 158.018 6.74C157.298 6.87333 156.618 7.06667 155.978 7.32L155.638 5.2C156.332 4.94667 157.098 4.75333 157.938 4.62C158.792 4.47333 159.638 4.4 160.478 4.4C161.545 4.4 162.385 4.52667 162.998 4.78C163.612 5.03333 164.058 5.46 164.338 6.06C164.618 6.64667 164.758 7.44 164.758 8.44V15H162.138L162.098 13.8H162.078C161.705 14.2267 161.192 14.5667 160.538 14.82C159.885 15.0733 159.218 15.2 158.538 15.2ZM159.538 13.12C160.005 13.12 160.425 13.04 160.798 12.88C161.172 12.72 161.465 12.5 161.678 12.22C161.905 11.9267 162.018 11.6067 162.018 11.26V10.08H161.038C159.958 10.08 159.152 10.22 158.618 10.5C158.085 10.7667 157.818 11.1867 157.818 11.76C157.818 12.1867 157.965 12.52 158.258 12.76C158.565 13 158.992 13.12 159.538 13.12Z" fill="#101B2D"/>
<path d="M47.6132 15L44.1732 4.6H47.0932L49.5332 13.16H49.5732L51.9932 4.6H54.9132L51.4732 15H47.6132ZM144.538 15V0.4H147.338V15H144.538Z" fill="#FFAC04"/>
</svg>
