<svg width="1000" height="1000" viewBox="0 0 1000 1000" fill="none" xmlns="http://www.w3.org/2000/svg">
<g clip-path="url(#clip0_38_75)">
<rect width="1000" height="1000" rx="100" fill="black"/>
<path fill-rule="evenodd" clip-rule="evenodd" d="M359.195 181L183.194 769.641L797.583 769.085L715.3 658.705L325.029 659.058L436.828 285.142L359.195 181Z" fill="#FFAC04"/>
<mask id="path-3-inside-1_38_75" fill="white">
<path fill-rule="evenodd" clip-rule="evenodd" d="M60.627 182.775L499.364 817.267L938.1 182.775H773.407L494.718 585.809L216.03 182.775H60.627Z"/>
</mask>
<path fill-rule="evenodd" clip-rule="evenodd" d="M60.627 182.775L499.364 817.267L938.1 182.775H773.407L494.718 585.809L216.03 182.775H60.627Z" fill="#FFAC04"/>
<path d="M499.364 817.267L479.623 830.917L499.364 859.465L519.104 830.917L499.364 817.267ZM60.627 182.775V158.775H14.8526L40.8867 196.425L60.627 182.775ZM938.1 182.775L957.841 196.425L983.875 158.775H938.1V182.775ZM773.407 182.775V158.775H760.823L753.667 169.125L773.407 182.775ZM494.718 585.809L474.978 599.459L494.718 628.007L514.459 599.459L494.718 585.809ZM216.03 182.775L235.77 169.125L228.613 158.775H216.03V182.775ZM519.104 803.617L80.3672 169.125L40.8867 196.425L479.623 830.917L519.104 803.617ZM918.36 169.125L479.623 803.617L519.104 830.917L957.841 196.425L918.36 169.125ZM938.1 158.775H773.407V206.775H938.1V158.775ZM514.459 599.459L793.147 196.425L753.667 169.125L474.978 572.159L514.459 599.459ZM196.289 196.425L474.978 599.459L514.459 572.159L235.77 169.125L196.289 196.425ZM216.03 158.775H60.627V206.775H216.03V158.775Z" fill="black" mask="url(#path-3-inside-1_38_75)"/>
</g>
<defs>
<clipPath id="clip0_38_75">
<rect width="1000" height="1000" rx="100" fill="white"/>
</clipPath>
</defs>
</svg>
