<svg width="96" height="36" viewBox="0 0 96 36" fill="none" xmlns="http://www.w3.org/2000/svg">
<path d="M11.576 36V6.864H0.344V0.959999H29.768V6.864H18.536V36H11.576ZM34.8054 36V0.959999H45.1734C51.3814 0.959999 55.9414 2.384 58.8534 5.232C61.7974 8.08 63.2694 12.496 63.2694 18.48C63.2694 24.464 61.7974 28.88 58.8534 31.728C55.9414 34.576 51.3814 36 45.1734 36H34.8054ZM45.6054 30.24C48.1974 30.24 50.2774 29.856 51.8454 29.088C53.4134 28.288 54.5654 27.024 55.3014 25.296C56.0374 23.568 56.4054 21.296 56.4054 18.48C56.4054 15.632 56.0374 13.36 55.3014 11.664C54.5654 9.936 53.4134 8.688 51.8454 7.92C50.2774 7.12 48.1974 6.72 45.6054 6.72H41.5254V30.24H45.6054ZM64.622 36L74.846 18.432L64.718 0.959999H72.35L79.79 14.592H79.886L87.326 0.959999H94.958L84.83 18.432L95.054 36H87.422L79.886 22.176H79.79L72.254 36H64.622Z" fill="black"/>
</svg>
