<svg width="125" height="37" viewBox="0 0 125 37" fill="none" xmlns="http://www.w3.org/2000/svg">
<path d="M12.076 36V6.864H0.844V0.959999H30.268V6.864H19.036V36H12.076ZM45.3198 36.48C42.9518 36.48 40.6318 36.24 38.3598 35.76C36.0878 35.248 34.1998 34.56 32.6958 33.696L34.2318 27.792C35.3198 28.336 36.5198 28.832 37.8318 29.28C39.1438 29.696 40.4878 30.032 41.8638 30.288C43.2398 30.512 44.5358 30.624 45.7518 30.624C47.8638 30.624 49.4798 30.256 50.5998 29.52C51.7198 28.784 52.2798 27.712 52.2798 26.304C52.2798 25.536 52.1038 24.896 51.7518 24.384C51.3998 23.84 50.8718 23.376 50.1678 22.992C49.4638 22.576 48.5678 22.192 47.4798 21.84C46.3918 21.488 45.1118 21.12 43.6398 20.736C41.9438 20.256 40.4238 19.712 39.0798 19.104C37.7358 18.496 36.5838 17.776 35.6238 16.944C34.6958 16.112 33.9758 15.152 33.4638 14.064C32.9838 12.944 32.7438 11.664 32.7438 10.224C32.7438 7.088 33.9438 4.688 36.3438 3.024C38.7438 1.328 42.1358 0.48 46.5198 0.48C48.6958 0.48 50.8558 0.687999 52.9998 1.104C55.1758 1.488 57.0478 2.032 58.6158 2.736L57.0318 8.64C55.4958 7.904 53.7998 7.344 51.9438 6.96C50.0878 6.544 48.2478 6.336 46.4238 6.336C44.2478 6.336 42.5998 6.672 41.4798 7.344C40.3598 7.984 39.7998 8.944 39.7998 10.224C39.7998 10.992 39.9598 11.648 40.2798 12.192C40.5998 12.704 41.0798 13.152 41.7198 13.536C42.3918 13.92 43.2238 14.288 44.2158 14.64C45.2398 14.992 46.4558 15.376 47.8638 15.792C49.6878 16.304 51.3038 16.88 52.7118 17.52C54.1518 18.128 55.3518 18.848 56.3118 19.68C57.3038 20.48 58.0558 21.424 58.5677 22.512C59.0798 23.6 59.3358 24.88 59.3358 26.352C59.3358 29.552 58.1038 32.048 55.6398 33.84C53.2078 35.6 49.7678 36.48 45.3198 36.48ZM75.976 36.48C73.608 36.48 71.288 36.24 69.016 35.76C66.744 35.248 64.856 34.56 63.352 33.696L64.888 27.792C65.976 28.336 67.176 28.832 68.488 29.28C69.8 29.696 71.144 30.032 72.52 30.288C73.896 30.512 75.192 30.624 76.408 30.624C78.52 30.624 80.136 30.256 81.256 29.52C82.376 28.784 82.936 27.712 82.936 26.304C82.936 25.536 82.76 24.896 82.408 24.384C82.056 23.84 81.528 23.376 80.824 22.992C80.12 22.576 79.224 22.192 78.136 21.84C77.048 21.488 75.768 21.12 74.296 20.736C72.6 20.256 71.08 19.712 69.736 19.104C68.392 18.496 67.24 17.776 66.28 16.944C65.352 16.112 64.632 15.152 64.12 14.064C63.64 12.944 63.4 11.664 63.4 10.224C63.4 7.088 64.6 4.688 67 3.024C69.4 1.328 72.792 0.48 77.176 0.48C79.352 0.48 81.512 0.687999 83.656 1.104C85.832 1.488 87.704 2.032 89.272 2.736L87.688 8.64C86.152 7.904 84.456 7.344 82.6 6.96C80.744 6.544 78.904 6.336 77.08 6.336C74.904 6.336 73.256 6.672 72.136 7.344C71.016 7.984 70.456 8.944 70.456 10.224C70.456 10.992 70.616 11.648 70.936 12.192C71.256 12.704 71.736 13.152 72.376 13.536C73.048 13.92 73.88 14.288 74.872 14.64C75.896 14.992 77.112 15.376 78.52 15.792C80.344 16.304 81.96 16.88 83.368 17.52C84.808 18.128 86.008 18.848 86.968 19.68C87.96 20.48 88.712 21.424 89.224 22.512C89.736 23.6 89.992 24.88 89.992 26.352C89.992 29.552 88.76 32.048 86.296 33.84C83.864 35.6 80.424 36.48 75.976 36.48ZM96.0554 36V0.959999H106.423C112.631 0.959999 117.191 2.384 120.103 5.232C123.047 8.08 124.519 12.496 124.519 18.48C124.519 24.464 123.047 28.88 120.103 31.728C117.191 34.576 112.631 36 106.423 36H96.0554ZM106.855 30.24C109.447 30.24 111.527 29.856 113.095 29.088C114.663 28.288 115.815 27.024 116.551 25.296C117.287 23.568 117.655 21.296 117.655 18.48C117.655 15.632 117.287 13.36 116.551 11.664C115.815 9.936 114.663 8.688 113.095 7.92C111.527 7.12 109.447 6.72 106.855 6.72H102.775V30.24H106.855Z" fill="black"/>
</svg>
