<svg width="125" height="37" viewBox="0 0 125 37" fill="none" xmlns="http://www.w3.org/2000/svg">
<path d="M0.696 36V0.959999H7.416V16.128H7.512L21.816 0.959999H29.976L14.232 17.76L30.456 36H22.296L7.512 19.392H7.416V36H0.696ZM44.3666 36.48C41.9986 36.48 39.6786 36.24 37.4066 35.76C35.1346 35.248 33.2466 34.56 31.7426 33.696L33.2786 27.792C34.3666 28.336 35.5666 28.832 36.8786 29.28C38.1906 29.696 39.5346 30.032 40.9106 30.288C42.2866 30.512 43.5826 30.624 44.7986 30.624C46.9106 30.624 48.5266 30.256 49.6466 29.52C50.7666 28.784 51.3266 27.712 51.3266 26.304C51.3266 25.536 51.1506 24.896 50.7986 24.384C50.4466 23.84 49.9186 23.376 49.2146 22.992C48.5106 22.576 47.6146 22.192 46.5266 21.84C45.4386 21.488 44.1586 21.12 42.6866 20.736C40.9906 20.256 39.4706 19.712 38.1266 19.104C36.7826 18.496 35.6306 17.776 34.6706 16.944C33.7426 16.112 33.0226 15.152 32.5106 14.064C32.0306 12.944 31.7906 11.664 31.7906 10.224C31.7906 7.088 32.9906 4.688 35.3906 3.024C37.7906 1.328 41.1826 0.48 45.5666 0.48C47.7426 0.48 49.9026 0.687999 52.0466 1.104C54.2226 1.488 56.0946 2.032 57.6626 2.736L56.0786 8.64C54.5426 7.904 52.8466 7.344 50.9906 6.96C49.1346 6.544 47.2946 6.336 45.4706 6.336C43.2946 6.336 41.6466 6.672 40.5266 7.344C39.4066 7.984 38.8466 8.944 38.8466 10.224C38.8466 10.992 39.0066 11.648 39.3266 12.192C39.6466 12.704 40.1266 13.152 40.7666 13.536C41.4386 13.92 42.2706 14.288 43.2626 14.64C44.2866 14.992 45.5026 15.376 46.9106 15.792C48.7346 16.304 50.3506 16.88 51.7586 17.52C53.1986 18.128 54.3986 18.848 55.3586 19.68C56.3506 20.48 57.1026 21.424 57.6146 22.512C58.1266 23.6 58.3826 24.88 58.3826 26.352C58.3826 29.552 57.1506 32.048 54.6866 33.84C52.2546 35.6 48.8146 36.48 44.3666 36.48ZM78.0836 36.48C73.4116 36.48 69.8596 35.408 67.4276 33.264C65.0276 31.12 63.8276 27.984 63.8276 23.856V0.959999H70.5476V22.56C70.5476 25.408 71.1236 27.456 72.2756 28.704C73.4596 29.952 75.3956 30.576 78.0836 30.576C80.7716 30.576 82.6916 29.952 83.8436 28.704C85.0276 27.456 85.6196 25.408 85.6196 22.56V0.959999H92.3396V23.856C92.3396 27.984 91.1396 31.12 88.7396 33.264C86.3396 35.408 82.7876 36.48 78.0836 36.48Z" fill="black"/>
<path d="M103.112 36C104.072 33.152 105.016 30.528 105.944 28.128C106.904 25.696 107.912 23.36 108.968 21.12C110.024 18.848 111.176 16.576 112.424 14.304C113.672 12 115.048 9.568 116.552 7.008V6.864H98.3119V0.959999H124.088V6.864C122.776 9.008 121.592 10.976 120.536 12.768C119.512 14.56 118.568 16.304 117.704 18C116.84 19.696 116.024 21.44 115.256 23.232C114.488 25.024 113.72 26.96 112.952 29.04C112.184 31.088 111.352 33.408 110.456 36H103.112Z" fill="#FFAC04"/>
</svg>
